<?xml version="1.0" encoding="utf-8"?>
<!-- Generator: Adobe Illustrator 26.0.1, SVG Export Plug-In . SVG Version: 6.00 Build 0)  -->
<svg version="1.1" id="Layer_1" xmlns="http://www.w3.org/2000/svg" xmlns:xlink="http://www.w3.org/1999/xlink" x="0px" y="0px"
	 viewBox="0 0 200 60" style="enable-background:new 0 0 200 60;" xml:space="preserve">
<style type="text/css">
	.st0{fill:#333333;}
	.st1{fill:url(#SVGID_1_);}
	.st2{fill:url(#SVGID_00000155829748228995731440000016275911696513584299_);}
	.st3{fill:#231F20;}
	.st4{fill:url(#SVGID_00000121972549249528708480000017119569657028035722_);}
	.st5{fill:url(#SVGID_00000046336159551267864820000009657657487285661589_);}
	.st6{fill:url(#SVGID_00000158733528732967521550000013712943034474677161_);}
	.st7{fill:url(#SVGID_00000163788402207465021640000014446566542453619632_);}
	.st8{fill:url(#SVGID_00000026134470327520246850000013435434870618415259_);}
	.st9{fill:url(#SVGID_00000085947998378269343190000010048772417868689793_);}
	.st10{fill:url(#SVGID_00000083060577604848906200000010793197600044585384_);}
	.st11{fill:url(#SVGID_00000158750225376608751950000013168551064564130188_);}
	.st12{fill:url(#SVGID_00000106126762661020013990000005430564642420491938_);}
	.st13{fill:url(#SVGID_00000052790790174640093600000003083450641665082034_);}
	.st14{fill:url(#SVGID_00000114771561658997236630000016014988298253405853_);}
	.st15{fill:url(#SVGID_00000078745590277789449010000011362673615983012031_);}
	.st16{fill:url(#SVGID_00000117647337975996061420000007733005041160274085_);}
	.st17{fill:url(#SVGID_00000072247193550177367740000016390672206840147102_);}
	.st18{fill:url(#SVGID_00000106853750135994472120000014830529401562413705_);}
	.st19{fill:url(#SVGID_00000151535712740332679560000014158372618042061703_);}
	.st20{fill:url(#SVGID_00000135650259113602284890000001706434456958687908_);}
	.st21{fill:url(#SVGID_00000156568135920793527750000014338121691267504259_);}
	.st22{fill:url(#SVGID_00000036235331728123456990000016681532734240968328_);}
	.st23{fill:url(#SVGID_00000044168199580190795990000011376554661789155718_);}
	.st24{fill:url(#SVGID_00000081634317313843959400000018139790581467645852_);}
	.st25{fill:url(#SVGID_00000084490079747800551420000009455886888043144320_);}
	.st26{fill:url(#SVGID_00000079480529184697978450000003137267019373067943_);}
	.st27{fill:url(#SVGID_00000017492849333214841850000015847332443797703860_);}
	.st28{fill:url(#SVGID_00000013156812376918930980000009509901269838535812_);}
	.st29{fill:url(#SVGID_00000006705333106132545410000017216400616929874086_);}
	.st30{fill:url(#SVGID_00000014601551628807986810000015917067689186036105_);}
	.st31{fill:url(#SVGID_00000000192547750402280240000014748266454031859842_);}
</style>
<g>
	<g>
		<path class="st0" d="M114,8.7h-2.3c0.4,0.8,0.8,1.6,1.2,2.4c1.4,3,2.9,6.1,4.3,9.1c0.6,1.2,0.9,2.6,0.9,4.1c0,4.4-2.9,8.2-7,9.2
			c-4.3,1-8.6-1.3-10.3-5.5c-1.1-2.7-1-5.4,0.3-8.1c1.8-3.7,3.6-7.5,5.3-11.2h-2.3c-4.5,0-7,2.6-7,7v13.4c0,4.5,2.6,7,7,7h9.9
			c4.5,0,7-2.6,7-7V15.7C121,11.3,118.4,8.7,114,8.7z"/>
		<g>
			<g>
				<linearGradient id="SVGID_1_" gradientUnits="userSpaceOnUse" x1="109.0296" y1="29.7166" x2="109.0296" y2="19.3886">
					<stop  offset="0" style="stop-color:#550000"/>
					<stop  offset="1" style="stop-color:#D32920"/>
				</linearGradient>
				<path class="st1" d="M114.2,24.3c0,2.5-1.7,4.7-4,5.3c-2.4,0.6-5-0.8-5.9-3.2c-0.6-1.6-0.5-3.1,0.2-4.7c1.5-3.1,2.9-6.1,4.4-9.2
					c0,0,0-0.1,0-0.1c0-0.1,0-0.2,0.2-0.2c0.1,0,0.1,0.1,0.2,0.2c0.7,1.4,1.3,2.8,2,4.2c0.8,1.7,1.7,3.5,2.5,5.2
					C114,22.7,114.2,23.5,114.2,24.3z"/>
			</g>
		</g>
		<polygon class="st0" points="33.7,36.2 27.1,36.2 24.7,28.3 22.9,22.7 21.2,17.2 18.6,8.7 23.9,8.7 		"/>
		<path class="st0" d="M55.1,8.7H38.2v27.4h6v-9.8h10.8c4.5,0,7-2.6,7-7v-3.6C62.1,11.3,59.5,8.7,55.1,8.7z M56,16.1V19
			c0,1.7,0,1.7-3.1,1.7h-8.7v-6.3h8.7C56,14.4,56,14.4,56,16.1z"/>
		<polygon class="st0" points="85.3,19.4 73.5,19.4 73.5,8.7 67.5,8.7 67.5,36.2 73.5,36.2 73.5,25.1 85.3,25.1 85.3,36.2 
			91.3,36.2 91.3,8.7 85.3,8.7 		"/>
		<path class="st0" d="M143.2,8.7h-16.5v27.4h16.9c4.5,0,7-2.6,7-7V15.7C150.6,11.3,147.8,8.7,143.2,8.7z M144.6,16.1v12.7
			c0,1.7,0,1.7-3.1,1.7h-8.7V14.4h8.7C144.6,14.4,144.6,14.7,144.6,16.1z"/>
		<rect x="156.2" y="8.7" class="st0" width="6" height="5.7"/>
		<rect x="156.2" y="20.4" class="st0" width="6" height="15.7"/>
		<path class="st0" d="M191.2,19.1v-3.4c0-4.5-2.6-7-7-7h-9.9c-4.5,0-7,2.6-7,7v2.8c0,4.5,2.6,7,7,7h7.7c2.6,0,3.1,0.9,3.1,2.5
			c0,1.6-0.5,2.5-3.1,2.5h-5.6c-2.4,0-3.1-0.7-3.1-3.1v-1.6h-6v3.4c0,4.5,2.6,7,7,7h9.9c4.5,0,7-2.6,7-7v-2.2c0-4.5-2.6-7-7-7h-7.7
			c-2.3,0-3.1-0.7-3.1-2.8c0-1.8,0.5-2.7,3.1-2.7h5.6c2.4,0,3.1,0.7,3.1,3.1v1.6H191.2z"/>
		
			<linearGradient id="SVGID_00000064325027434109807350000010985519005986035612_" gradientUnits="userSpaceOnUse" x1="23.4893" y1="13.5748" x2="19.0824" y2="25.253">
			<stop  offset="0" style="stop-color:#550000"/>
			<stop  offset="1" style="stop-color:#D32920"/>
		</linearGradient>
		<polygon style="fill:url(#SVGID_00000064325027434109807350000010985519005986035612_);" points="24.7,28.3 24.4,28.3 24.4,28.3 
			18,28.3 18,28.3 17.7,28.3 15.3,36.2 8.8,36.2 18.6,8.7 21.2,17.2 19.5,22.7 22.9,22.7 		"/>
		<polygon class="st3" points="24.4,28.3 18,28.3 18,28.3 24.4,28.3 		"/>
	</g>
	<g>
		<g>
			
				<linearGradient id="SVGID_00000138547773078563210590000003254778637332281476_" gradientUnits="userSpaceOnUse" x1="52.6544" y1="33.3516" x2="52.6544" y2="55.914">
				<stop  offset="0" style="stop-color:#D32920"/>
				<stop  offset="0.4293" style="stop-color:#D12820"/>
				<stop  offset="0.584" style="stop-color:#CA261E"/>
				<stop  offset="0.6943" style="stop-color:#BF221B"/>
				<stop  offset="0.7834" style="stop-color:#AE1D17"/>
				<stop  offset="0.8597" style="stop-color:#981611"/>
				<stop  offset="0.9274" style="stop-color:#7C0D0A"/>
				<stop  offset="0.987" style="stop-color:#5D0302"/>
				<stop  offset="1" style="stop-color:#550000"/>
			</linearGradient>
			<path style="fill:url(#SVGID_00000138547773078563210590000003254778637332281476_);" d="M52.3,44.4l-0.2,1.1h-1.1l0.2-1
				c0.1-0.6,0.3-1,0.6-1.3c0.3-0.3,0.6-0.4,0.9-0.5l-0.1,0.4c-0.4,0.1-0.7,0.5-0.9,1.2H52.3z M54.1,44.4l-0.2,1.1h-1.1l0.2-1
				c0.1-0.6,0.3-1,0.6-1.3c0.3-0.3,0.6-0.4,0.9-0.5l-0.1,0.4c-0.4,0.1-0.7,0.5-0.9,1.2H54.1z"/>
			
				<linearGradient id="SVGID_00000039846156339200724810000017118682479059334529_" gradientUnits="userSpaceOnUse" x1="52.6555" y1="33.3516" x2="52.6555" y2="55.914">
				<stop  offset="0" style="stop-color:#D32920"/>
				<stop  offset="1" style="stop-color:#550000"/>
			</linearGradient>
			<path style="fill:url(#SVGID_00000039846156339200724810000017118682479059334529_);" d="M53.9,45.7h-1.4l0.2-1.1
				c0.1-0.6,0.3-1.1,0.6-1.4c0.3-0.3,0.6-0.5,1-0.5l0.2,0l-0.1,0.7l-0.1,0c-0.4,0.1-0.6,0.4-0.8,1h0.6L53.9,45.7z M52.8,45.4h0.9
				l0.2-0.9h-0.6l0-0.1c0.2-0.7,0.5-1.1,0.9-1.3l0-0.2c-0.3,0.1-0.5,0.2-0.7,0.4c-0.2,0.3-0.4,0.7-0.5,1.2L52.8,45.4z M52.1,45.7
				h-1.4l0.2-1.1c0.1-0.6,0.3-1.1,0.6-1.4c0.3-0.3,0.6-0.5,1-0.5l0.2,0l-0.1,0.7l-0.1,0c-0.4,0.1-0.6,0.4-0.8,1h0.6L52.1,45.7z
				 M51.1,45.4H52l0.2-0.9h-0.6l0-0.1c0.2-0.7,0.5-1.1,0.9-1.3l0-0.2c-0.3,0.1-0.5,0.2-0.7,0.4c-0.2,0.3-0.4,0.7-0.5,1.2L51.1,45.4z
				"/>
		</g>
		<g>
			
				<linearGradient id="SVGID_00000153698351450008362060000004643075578345197467_" gradientUnits="userSpaceOnUse" x1="58.9828" y1="33.3516" x2="58.9828" y2="55.914">
				<stop  offset="0" style="stop-color:#D32920"/>
				<stop  offset="1" style="stop-color:#550000"/>
			</linearGradient>
			<path style="fill:url(#SVGID_00000153698351450008362060000004643075578345197467_);" d="M60.1,50.3c-0.3,0.3-0.7,0.5-1,0.7
				c-0.3,0.1-0.7,0.2-1,0.2c-0.5,0-1-0.2-1.3-0.5c-0.3-0.3-0.5-0.7-0.5-1.2c0-0.3,0.1-0.6,0.2-0.9c0.1-0.3,0.3-0.5,0.6-0.6
				c0.2-0.2,0.5-0.3,0.9-0.3c0.2,0,0.7-0.1,1.3-0.1c0.6,0,1.1-0.1,1.4-0.2c0.1-0.3,0.1-0.5,0.1-0.7c0-0.2-0.1-0.4-0.3-0.5
				c-0.2-0.2-0.6-0.3-1-0.3c-0.4,0-0.8,0.1-1,0.3c-0.3,0.2-0.5,0.5-0.6,0.8l-1-0.1c0.2-0.6,0.5-1,1-1.3c0.4-0.3,1-0.5,1.7-0.5
				c0.7,0,1.3,0.2,1.7,0.5c0.3,0.3,0.5,0.6,0.5,1c0,0.3,0,0.7-0.1,1.1l-0.3,1.5c-0.1,0.5-0.2,0.8-0.2,1.1c0,0.2,0,0.4,0.1,0.8h-1
				C60.1,50.8,60.1,50.6,60.1,50.3z M60.5,48c-0.1,0.1-0.3,0.1-0.5,0.1c-0.2,0-0.4,0.1-0.8,0.1c-0.6,0.1-1,0.1-1.2,0.2
				c-0.2,0.1-0.4,0.2-0.5,0.4c-0.1,0.2-0.2,0.4-0.2,0.6c0,0.3,0.1,0.5,0.3,0.7c0.2,0.2,0.5,0.3,0.8,0.3c0.3,0,0.7-0.1,1-0.3
				c0.3-0.2,0.5-0.4,0.7-0.7S60.4,48.6,60.5,48z"/>
			
				<linearGradient id="SVGID_00000139253549248074599960000012033477447850836902_" gradientUnits="userSpaceOnUse" x1="58.9828" y1="33.3516" x2="58.9828" y2="55.914">
				<stop  offset="0" style="stop-color:#D32920"/>
				<stop  offset="1" style="stop-color:#550000"/>
			</linearGradient>
			<path style="fill:url(#SVGID_00000139253549248074599960000012033477447850836902_);" d="M58.1,51.3c-0.6,0-1-0.2-1.4-0.5
				c-0.4-0.3-0.5-0.8-0.5-1.3c0-0.3,0.1-0.7,0.2-0.9c0.2-0.3,0.4-0.5,0.6-0.6c0.3-0.2,0.6-0.3,0.9-0.3c0.2,0,0.7-0.1,1.3-0.1
				c0.6,0,1-0.1,1.3-0.2c0.1-0.2,0.1-0.4,0.1-0.6c0-0.2-0.1-0.3-0.2-0.5C60.2,46,59.9,46,59.5,46c-0.4,0-0.7,0.1-1,0.3
				c-0.2,0.2-0.4,0.4-0.5,0.7l0,0.1l-1.2-0.1l0-0.1c0.2-0.6,0.6-1.1,1-1.4c0.5-0.3,1.1-0.5,1.8-0.5c0.7,0,1.4,0.2,1.8,0.5
				c0.4,0.3,0.5,0.6,0.5,1.1c0,0.3,0,0.7-0.1,1.1l-0.3,1.5c-0.1,0.5-0.2,0.8-0.2,1.1c0,0.2,0,0.4,0.1,0.8l0,0.1h-1.2l0-0.1
				c0-0.1-0.1-0.3-0.1-0.5c-0.3,0.2-0.6,0.4-0.9,0.5C58.8,51.2,58.4,51.3,58.1,51.3z M59.5,45.7c0.5,0,0.8,0.1,1.1,0.3
				c0.2,0.2,0.3,0.4,0.3,0.6c0,0.2,0,0.4-0.1,0.7l0,0.1l-0.1,0c-0.3,0.1-0.7,0.2-1.4,0.2c-0.6,0-1,0.1-1.3,0.1
				c-0.3,0.1-0.6,0.2-0.9,0.3c-0.2,0.1-0.4,0.3-0.6,0.6c-0.1,0.2-0.2,0.5-0.2,0.8c0,0.5,0.2,0.8,0.5,1.1c0.3,0.3,0.7,0.4,1.2,0.4
				c0.3,0,0.7-0.1,1-0.2c0.3-0.1,0.6-0.3,1-0.6l0.2-0.1l0,0.2c0,0.2,0,0.5,0.1,0.6h0.8C61,50.6,61,50.4,61,50.2
				c0-0.3,0.1-0.7,0.2-1.2l0.3-1.5c0.1-0.4,0.1-0.8,0.1-1.1c0-0.4-0.1-0.7-0.4-0.9c-0.4-0.3-1-0.5-1.7-0.5c-0.7,0-1.2,0.1-1.6,0.4
				c-0.4,0.3-0.7,0.7-0.9,1.1l0.8,0.1c0.1-0.3,0.3-0.6,0.6-0.8C58.6,45.8,59,45.7,59.5,45.7z M58.4,50.5c-0.4,0-0.7-0.1-0.9-0.3
				c-0.2-0.2-0.3-0.5-0.3-0.8c0-0.2,0.1-0.4,0.2-0.6c0.1-0.2,0.3-0.3,0.6-0.4c0.3-0.1,0.7-0.1,1.3-0.2c0.4,0,0.6-0.1,0.8-0.1
				c0.2,0,0.3-0.1,0.4-0.1l0.2-0.1l0,0.2c-0.1,0.6-0.2,1.1-0.4,1.4c-0.2,0.3-0.4,0.6-0.8,0.8C59.1,50.4,58.7,50.5,58.4,50.5z
				 M60.3,48.2c-0.1,0-0.2,0-0.3,0.1c-0.2,0-0.4,0.1-0.8,0.1c-0.6,0.1-1,0.1-1.2,0.2c-0.2,0.1-0.4,0.2-0.5,0.3
				c-0.1,0.2-0.2,0.3-0.2,0.5c0,0.2,0.1,0.4,0.3,0.6c0.2,0.2,0.4,0.2,0.7,0.2c0.3,0,0.6-0.1,0.9-0.2c0.3-0.2,0.5-0.4,0.7-0.7
				C60.1,49.1,60.2,48.7,60.3,48.2z"/>
		</g>
		<g>
			
				<linearGradient id="SVGID_00000115498549584229168400000003448379272305634439_" gradientUnits="userSpaceOnUse" x1="65.9608" y1="33.3516" x2="65.9608" y2="55.914">
				<stop  offset="0" style="stop-color:#D32920"/>
				<stop  offset="1" style="stop-color:#550000"/>
			</linearGradient>
			<path style="fill:url(#SVGID_00000115498549584229168400000003448379272305634439_);" d="M64.6,51l1.7-8.1h1L65.6,51H64.6z"/>
			
				<linearGradient id="SVGID_00000103239086691041345560000015473959387257123248_" gradientUnits="userSpaceOnUse" x1="65.9608" y1="33.3516" x2="65.9608" y2="55.914">
				<stop  offset="0" style="stop-color:#D32920"/>
				<stop  offset="1" style="stop-color:#550000"/>
			</linearGradient>
			<path style="fill:url(#SVGID_00000103239086691041345560000015473959387257123248_);" d="M65.7,51.1h-1.2l1.7-8.3h1.2L65.7,51.1z
				 M64.8,50.9h0.8l1.6-7.9h-0.8L64.8,50.9z"/>
		</g>
		<g>
			
				<linearGradient id="SVGID_00000137119318636376043850000018334154848835958673_" gradientUnits="userSpaceOnUse" x1="70.7413" y1="33.3516" x2="70.7413" y2="55.914">
				<stop  offset="0" style="stop-color:#D32920"/>
				<stop  offset="1" style="stop-color:#550000"/>
			</linearGradient>
			<path style="fill:url(#SVGID_00000137119318636376043850000018334154848835958673_);" d="M69.4,51l1.7-8.1h1L70.4,51H69.4z"/>
			
				<linearGradient id="SVGID_00000092442875245094338070000013896123815598081937_" gradientUnits="userSpaceOnUse" x1="70.7413" y1="33.3516" x2="70.7413" y2="55.914">
				<stop  offset="0" style="stop-color:#D32920"/>
				<stop  offset="1" style="stop-color:#550000"/>
			</linearGradient>
			<path style="fill:url(#SVGID_00000092442875245094338070000013896123815598081937_);" d="M70.5,51.1h-1.2l1.7-8.3h1.2L70.5,51.1z
				 M69.5,50.9h0.8l1.6-7.9h-0.8L69.5,50.9z"/>
		</g>
		<g>
			
				<linearGradient id="SVGID_00000072238218044223837960000000754050349794101409_" gradientUnits="userSpaceOnUse" x1="82.3604" y1="33.3516" x2="82.3604" y2="55.914">
				<stop  offset="0" style="stop-color:#D32920"/>
				<stop  offset="1" style="stop-color:#550000"/>
			</linearGradient>
			<path style="fill:url(#SVGID_00000072238218044223837960000000754050349794101409_);" d="M79.8,49l1-0.1c0,0.3,0,0.5,0.1,0.7
				c0.1,0.2,0.3,0.4,0.5,0.5c0.2,0.1,0.5,0.2,0.8,0.2c0.4,0,0.8-0.1,1-0.3s0.3-0.4,0.3-0.6c0-0.2-0.1-0.3-0.2-0.5
				c-0.1-0.2-0.5-0.3-1-0.6c-0.5-0.2-0.9-0.4-1-0.5c-0.2-0.2-0.4-0.3-0.6-0.5c-0.1-0.2-0.2-0.4-0.2-0.7c0-0.5,0.2-0.9,0.6-1.2
				c0.4-0.3,0.9-0.5,1.5-0.5c0.7,0,1.3,0.2,1.7,0.5c0.4,0.3,0.6,0.8,0.6,1.3l-1,0.1c0-0.4-0.1-0.6-0.4-0.8c-0.2-0.2-0.6-0.3-1-0.3
				c-0.3,0-0.6,0.1-0.8,0.2c-0.2,0.2-0.3,0.3-0.3,0.5s0.1,0.3,0.2,0.5c0.1,0.1,0.4,0.2,0.9,0.4c0.8,0.3,1.2,0.6,1.4,0.8
				c0.3,0.3,0.5,0.7,0.5,1.1c0,0.3-0.1,0.6-0.3,0.9c-0.2,0.3-0.5,0.5-0.8,0.7c-0.4,0.2-0.8,0.3-1.3,0.3c-0.7,0-1.3-0.2-1.7-0.5
				C80,50.3,79.7,49.8,79.8,49z"/>
			
				<linearGradient id="SVGID_00000048496160322762427400000008252240155765020568_" gradientUnits="userSpaceOnUse" x1="82.3618" y1="33.3516" x2="82.3618" y2="55.914">
				<stop  offset="0" style="stop-color:#D32920"/>
				<stop  offset="1" style="stop-color:#550000"/>
			</linearGradient>
			<path style="fill:url(#SVGID_00000048496160322762427400000008252240155765020568_);" d="M82.2,51.3c-0.7,0-1.3-0.2-1.8-0.5
				c-0.5-0.4-0.8-0.9-0.7-1.7l0-0.1l1.2-0.1V49c0,0.3,0,0.5,0.1,0.7c0.1,0.2,0.2,0.3,0.4,0.4c0.2,0.1,0.5,0.2,0.8,0.2
				c0.4,0,0.7-0.1,0.9-0.2c0.2-0.2,0.3-0.3,0.3-0.5c0-0.1-0.1-0.3-0.2-0.4c-0.1-0.1-0.3-0.3-1-0.5c-0.5-0.2-0.9-0.4-1-0.5
				c-0.3-0.2-0.5-0.4-0.6-0.6c-0.1-0.2-0.2-0.5-0.2-0.8c0-0.5,0.2-0.9,0.6-1.3c0.4-0.3,0.9-0.5,1.6-0.5c0.8,0,1.4,0.2,1.8,0.5
				c0.4,0.4,0.6,0.8,0.6,1.4l0,0.1l-1.2,0.1l0-0.1c0-0.3-0.1-0.6-0.3-0.8c-0.2-0.2-0.5-0.3-0.9-0.3c-0.3,0-0.6,0.1-0.7,0.2
				c-0.2,0.1-0.2,0.3-0.2,0.4c0,0.2,0.1,0.3,0.2,0.4c0.1,0.1,0.3,0.2,0.8,0.4c0.8,0.3,1.3,0.6,1.5,0.8c0.3,0.3,0.5,0.7,0.5,1.2
				c0,0.3-0.1,0.6-0.3,0.9c-0.2,0.3-0.5,0.5-0.9,0.7C83.1,51.2,82.7,51.3,82.2,51.3z M79.9,49.1c0,0.7,0.2,1.1,0.6,1.4
				c0.5,0.3,1,0.5,1.7,0.5c0.5,0,0.9-0.1,1.2-0.2c0.3-0.2,0.6-0.4,0.8-0.6c0.2-0.3,0.3-0.5,0.3-0.8c0-0.4-0.1-0.7-0.4-1
				c-0.2-0.2-0.7-0.4-1.4-0.8c-0.5-0.2-0.8-0.4-0.9-0.5c-0.2-0.2-0.3-0.4-0.3-0.6c0-0.2,0.1-0.4,0.3-0.6c0.2-0.2,0.5-0.3,0.9-0.3
				c0.5,0,0.8,0.1,1.1,0.3c0.2,0.2,0.4,0.5,0.4,0.8l0.8-0.1c0-0.5-0.2-0.9-0.6-1.2c-0.4-0.3-0.9-0.5-1.6-0.5c-0.6,0-1.1,0.2-1.5,0.5
				c-0.3,0.3-0.5,0.7-0.5,1.1c0,0.2,0.1,0.5,0.2,0.6c0.1,0.2,0.3,0.4,0.5,0.5c0.1,0.1,0.5,0.2,1,0.5c0.6,0.2,0.9,0.4,1,0.6
				c0.2,0.2,0.2,0.4,0.2,0.6c0,0.3-0.1,0.5-0.4,0.7c-0.2,0.2-0.6,0.3-1.1,0.3c-0.3,0-0.6-0.1-0.9-0.2c-0.3-0.1-0.4-0.3-0.5-0.6
				c-0.1-0.2-0.1-0.4-0.1-0.7L79.9,49.1z"/>
		</g>
		<g>
			
				<linearGradient id="SVGID_00000032643697562804504710000007599618671415169691_" gradientUnits="userSpaceOnUse" x1="90.5475" y1="33.3516" x2="90.5475" y2="55.914">
				<stop  offset="0" style="stop-color:#D32920"/>
				<stop  offset="1" style="stop-color:#550000"/>
			</linearGradient>
			<path style="fill:url(#SVGID_00000032643697562804504710000007599618671415169691_);" d="M87.8,48.8c0-1.1,0.3-2.1,1-2.8
				c0.6-0.6,1.3-0.9,2.2-0.9c0.7,0,1.3,0.2,1.7,0.7c0.4,0.4,0.6,1,0.6,1.8c0,0.7-0.1,1.3-0.4,1.9c-0.3,0.6-0.7,1-1.2,1.3
				c-0.5,0.3-1,0.5-1.6,0.5c-0.5,0-0.9-0.1-1.2-0.3c-0.4-0.2-0.7-0.5-0.9-0.8C87.9,49.7,87.8,49.3,87.8,48.8z M88.8,48.7
				c0,0.6,0.1,1,0.4,1.3c0.3,0.3,0.6,0.4,1,0.4c0.2,0,0.4,0,0.6-0.1c0.2-0.1,0.4-0.2,0.6-0.4c0.2-0.2,0.3-0.4,0.5-0.6
				c0.1-0.2,0.2-0.5,0.3-0.7c0.1-0.4,0.2-0.7,0.2-1.1c0-0.5-0.1-0.9-0.4-1.2c-0.3-0.3-0.6-0.4-1-0.4c-0.3,0-0.6,0.1-0.9,0.2
				c-0.3,0.1-0.5,0.4-0.7,0.7c-0.2,0.3-0.4,0.6-0.5,1C88.8,48.1,88.8,48.4,88.8,48.7z"/>
			
				<linearGradient id="SVGID_00000152973098309866082750000013695554010317030582_" gradientUnits="userSpaceOnUse" x1="90.5475" y1="33.3516" x2="90.5475" y2="55.914">
				<stop  offset="0" style="stop-color:#D32920"/>
				<stop  offset="1" style="stop-color:#550000"/>
			</linearGradient>
			<path style="fill:url(#SVGID_00000152973098309866082750000013695554010317030582_);" d="M90.2,51.3c-0.5,0-0.9-0.1-1.3-0.3
				c-0.4-0.2-0.7-0.5-0.9-0.9c-0.2-0.4-0.3-0.8-0.3-1.3c0-1.2,0.4-2.2,1-2.9c0.6-0.6,1.3-1,2.3-1c0.7,0,1.3,0.2,1.8,0.7
				c0.5,0.5,0.7,1.1,0.7,1.9c0,0.7-0.1,1.3-0.4,1.9c-0.3,0.6-0.7,1.1-1.2,1.4C91.3,51.1,90.7,51.3,90.2,51.3z M91,45.1
				c-0.9,0-1.6,0.3-2.1,0.9c-0.7,0.7-1,1.7-1,2.8c0,0.4,0.1,0.8,0.3,1.2c0.2,0.3,0.5,0.6,0.8,0.8c0.4,0.2,0.8,0.3,1.2,0.3
				c0.5,0,1-0.2,1.5-0.4c0.5-0.3,0.9-0.7,1.1-1.3c0.3-0.6,0.4-1.2,0.4-1.8c0-0.7-0.2-1.3-0.6-1.7C92.2,45.3,91.6,45.1,91,45.1z
				 M90.2,50.5c-0.4,0-0.8-0.2-1.1-0.5c-0.3-0.3-0.4-0.8-0.4-1.3c0-0.3,0.1-0.7,0.2-1c0.1-0.4,0.3-0.7,0.5-1
				c0.2-0.3,0.5-0.5,0.7-0.7c0.3-0.2,0.6-0.2,0.9-0.2c0.4,0,0.8,0.2,1.1,0.5c0.3,0.3,0.4,0.8,0.4,1.3c0,0.3-0.1,0.7-0.2,1.1
				c-0.1,0.3-0.2,0.5-0.3,0.8c-0.1,0.2-0.3,0.4-0.5,0.6c-0.2,0.2-0.4,0.3-0.6,0.4C90.6,50.5,90.4,50.5,90.2,50.5z M90.9,45.9
				c-0.3,0-0.6,0.1-0.8,0.2c-0.2,0.1-0.5,0.4-0.7,0.6c-0.2,0.3-0.3,0.6-0.4,1c-0.1,0.4-0.1,0.7-0.1,1c0,0.5,0.1,0.9,0.4,1.2
				c0.2,0.3,0.5,0.4,0.9,0.4c0.2,0,0.4,0,0.6-0.1c0.2-0.1,0.4-0.2,0.5-0.4c0.2-0.2,0.3-0.4,0.4-0.6c0.1-0.2,0.2-0.5,0.3-0.7
				c0.1-0.4,0.2-0.7,0.2-1c0-0.5-0.1-0.9-0.4-1.2C91.6,46,91.3,45.9,90.9,45.9z"/>
		</g>
		<g>
			
				<linearGradient id="SVGID_00000101093891688627021480000013474774778034977960_" gradientUnits="userSpaceOnUse" x1="97.4205" y1="33.3516" x2="97.4205" y2="55.914">
				<stop  offset="0" style="stop-color:#D32920"/>
				<stop  offset="1" style="stop-color:#550000"/>
			</linearGradient>
			<path style="fill:url(#SVGID_00000101093891688627021480000013474774778034977960_);" d="M96.1,51l1.7-8.1h1L97.1,51H96.1z"/>
			
				<linearGradient id="SVGID_00000135659467054300458820000015179214350271374758_" gradientUnits="userSpaceOnUse" x1="97.4205" y1="33.3516" x2="97.4205" y2="55.914">
				<stop  offset="0" style="stop-color:#D32920"/>
				<stop  offset="1" style="stop-color:#550000"/>
			</linearGradient>
			<path style="fill:url(#SVGID_00000135659467054300458820000015179214350271374758_);" d="M97.2,51.1h-1.2l1.7-8.3h1.2L97.2,51.1z
				 M96.2,50.9H97l1.6-7.9h-0.8L96.2,50.9z"/>
		</g>
		<g>
			
				<linearGradient id="SVGID_00000007405902412969651680000009447860521712053429_" gradientUnits="userSpaceOnUse" x1="104.067" y1="33.3516" x2="104.067" y2="55.914">
				<stop  offset="0" style="stop-color:#D32920"/>
				<stop  offset="1" style="stop-color:#550000"/>
			</linearGradient>
			<path style="fill:url(#SVGID_00000007405902412969651680000009447860521712053429_);" d="M104.9,50c-0.7,0.8-1.4,1.2-2.2,1.2
				c-0.5,0-0.8-0.1-1.1-0.4c-0.3-0.3-0.4-0.6-0.4-1c0-0.2,0.1-0.7,0.2-1.3l0.7-3.4h1l-0.8,3.8c-0.1,0.3-0.1,0.6-0.1,0.7
				c0,0.2,0.1,0.4,0.2,0.5c0.1,0.1,0.3,0.2,0.6,0.2c0.3,0,0.6-0.1,0.8-0.2c0.3-0.1,0.5-0.3,0.7-0.6c0.2-0.2,0.4-0.5,0.5-0.8
				c0.1-0.2,0.2-0.6,0.3-1.1l0.5-2.5h1l-1.2,5.9h-0.9L104.9,50z"/>
			
				<linearGradient id="SVGID_00000123434501085005993990000009849924363635942052_" gradientUnits="userSpaceOnUse" x1="104.0803" y1="33.3516" x2="104.0803" y2="55.914">
				<stop  offset="0" style="stop-color:#D32920"/>
				<stop  offset="1" style="stop-color:#550000"/>
			</linearGradient>
			<path style="fill:url(#SVGID_00000123434501085005993990000009849924363635942052_);" d="M102.8,51.3c-0.5,0-0.9-0.1-1.2-0.4
				c-0.3-0.3-0.5-0.6-0.5-1c0-0.3,0.1-0.7,0.2-1.3l0.7-3.5h1.2l-0.8,3.9c-0.1,0.3-0.1,0.5-0.1,0.7c0,0.2,0.1,0.3,0.2,0.4
				c0.1,0.1,0.3,0.2,0.5,0.2c0.3,0,0.5-0.1,0.8-0.2c0.3-0.1,0.5-0.3,0.7-0.5c0.2-0.2,0.3-0.5,0.5-0.8c0.1-0.2,0.2-0.5,0.3-1l0.5-2.6
				h1.2l-1.3,6.1h-1.2l0.2-0.8C104.1,51,103.4,51.3,102.8,51.3z M102.3,45.3l-0.7,3.3c-0.1,0.6-0.2,1-0.2,1.2c0,0.3,0.1,0.6,0.4,0.9
				c0.3,0.2,0.6,0.4,1,0.4c0.7,0,1.4-0.4,2.1-1.2l0.3-0.3l-0.3,1.3h0.7l1.2-5.6H106l-0.5,2.4c-0.1,0.5-0.2,0.9-0.3,1.1
				c-0.1,0.3-0.3,0.6-0.5,0.9c-0.2,0.2-0.4,0.4-0.7,0.6c-0.3,0.1-0.6,0.2-0.9,0.2c-0.3,0-0.5-0.1-0.7-0.2c-0.2-0.1-0.2-0.3-0.2-0.6
				c0-0.2,0-0.4,0.1-0.8l0.8-3.6H102.3z"/>
		</g>
		<g>
			
				<linearGradient id="SVGID_00000072248047876378296180000011383088034172819383_" gradientUnits="userSpaceOnUse" x1="111.2552" y1="33.3516" x2="111.2552" y2="55.914">
				<stop  offset="0" style="stop-color:#D32920"/>
				<stop  offset="1" style="stop-color:#550000"/>
			</linearGradient>
			<path style="fill:url(#SVGID_00000072248047876378296180000011383088034172819383_);" d="M111.8,50.2l-0.2,0.8
				c-0.2,0.1-0.5,0.1-0.7,0.1c-0.4,0-0.7-0.1-1-0.3c-0.2-0.1-0.3-0.3-0.3-0.6c0-0.1,0-0.4,0.1-0.9l0.7-3.4h-0.8l0.2-0.8h0.8l0.3-1.4
				l1.1-0.7l-0.4,2.1h1l-0.2,0.8h-1l-0.7,3.2c-0.1,0.4-0.1,0.7-0.1,0.7c0,0.1,0,0.2,0.1,0.3c0.1,0.1,0.2,0.1,0.3,0.1
				C111.5,50.3,111.7,50.3,111.8,50.2z"/>
			
				<linearGradient id="SVGID_00000101803863756138800090000006112818785632624032_" gradientUnits="userSpaceOnUse" x1="111.2688" y1="33.3516" x2="111.2688" y2="55.914">
				<stop  offset="0" style="stop-color:#D32920"/>
				<stop  offset="1" style="stop-color:#550000"/>
			</linearGradient>
			<path style="fill:url(#SVGID_00000101803863756138800090000006112818785632624032_);" d="M111,51.2c-0.4,0-0.8-0.1-1-0.3
				c-0.2-0.2-0.3-0.4-0.3-0.7c0-0.1,0-0.4,0.1-0.9l0.7-3.3h-0.8l0.2-1h0.8l0.3-1.4l1.4-0.9l-0.5,2.3h1l-0.2,1h-1l-0.7,3.2
				c-0.1,0.5-0.1,0.7-0.1,0.7c0,0.1,0,0.1,0.1,0.2c0,0,0.1,0.1,0.3,0.1c0.2,0,0.4,0,0.6-0.1l0.2,0l-0.2,1.1l-0.1,0
				C111.4,51.2,111.2,51.2,111,51.2z M110,45.8h0.8l-0.7,3.5c-0.1,0.6-0.1,0.8-0.1,0.9c0,0.2,0.1,0.4,0.2,0.5
				c0.2,0.2,0.5,0.3,0.9,0.3c0.2,0,0.4,0,0.6-0.1l0.1-0.6c-0.1,0-0.3,0-0.4,0c-0.2,0-0.3,0-0.4-0.1c-0.1-0.1-0.1-0.2-0.1-0.4
				c0-0.1,0-0.2,0.1-0.8l0.7-3.3h1l0.1-0.5h-1l0.4-2l-0.9,0.5l-0.3,1.5h-0.8L110,45.8z"/>
		</g>
		<g>
			
				<linearGradient id="SVGID_00000131339785365682238160000015810405517246082738_" gradientUnits="userSpaceOnUse" x1="116.2123" y1="33.3516" x2="116.2123" y2="55.914">
				<stop  offset="0" style="stop-color:#D32920"/>
				<stop  offset="1" style="stop-color:#550000"/>
			</linearGradient>
			<path style="fill:url(#SVGID_00000131339785365682238160000015810405517246082738_);" d="M114.9,51l1.2-5.9h1l-1.2,5.9H114.9z
				 M116.3,44.1l0.2-1.1h1l-0.2,1.1H116.3z"/>
			
				<linearGradient id="SVGID_00000096748003618831305500000004543897259116912559_" gradientUnits="userSpaceOnUse" x1="116.2123" y1="33.3516" x2="116.2123" y2="55.914">
				<stop  offset="0" style="stop-color:#D32920"/>
				<stop  offset="1" style="stop-color:#550000"/>
			</linearGradient>
			<path style="fill:url(#SVGID_00000096748003618831305500000004543897259116912559_);" d="M116,51.1h-1.2L116,45h1.2L116,51.1z
				 M115,50.9h0.8l1.2-5.6h-0.8L115,50.9z M117.4,44.2h-1.2l0.3-1.4h1.2L117.4,44.2z M116.5,43.9h0.8l0.2-0.9h-0.8L116.5,43.9z"/>
		</g>
		<g>
			
				<linearGradient id="SVGID_00000013162051495851171750000007991687643140614329_" gradientUnits="userSpaceOnUse" x1="122.643" y1="33.3516" x2="122.643" y2="55.914">
				<stop  offset="0" style="stop-color:#D32920"/>
				<stop  offset="1" style="stop-color:#550000"/>
			</linearGradient>
			<path style="fill:url(#SVGID_00000013162051495851171750000007991687643140614329_);" d="M119.9,48.8c0-1.1,0.3-2.1,1-2.8
				c0.6-0.6,1.3-0.9,2.2-0.9c0.7,0,1.3,0.2,1.7,0.7c0.4,0.4,0.6,1,0.6,1.8c0,0.7-0.1,1.3-0.4,1.9c-0.3,0.6-0.7,1-1.2,1.3
				c-0.5,0.3-1,0.5-1.6,0.5c-0.5,0-0.9-0.1-1.2-0.3c-0.4-0.2-0.7-0.5-0.9-0.8C120,49.7,119.9,49.3,119.9,48.8z M120.9,48.7
				c0,0.6,0.1,1,0.4,1.3c0.3,0.3,0.6,0.4,1,0.4c0.2,0,0.4,0,0.6-0.1c0.2-0.1,0.4-0.2,0.6-0.4c0.2-0.2,0.3-0.4,0.5-0.6
				c0.1-0.2,0.2-0.5,0.3-0.7c0.1-0.4,0.2-0.7,0.2-1.1c0-0.5-0.1-0.9-0.4-1.2c-0.3-0.3-0.6-0.4-1-0.4c-0.3,0-0.6,0.1-0.9,0.2
				c-0.3,0.1-0.5,0.4-0.7,0.7c-0.2,0.3-0.4,0.6-0.5,1C120.9,48.1,120.9,48.4,120.9,48.7z"/>
			
				<linearGradient id="SVGID_00000068650455197864513940000004763808768162811316_" gradientUnits="userSpaceOnUse" x1="122.643" y1="33.3516" x2="122.643" y2="55.914">
				<stop  offset="0" style="stop-color:#D32920"/>
				<stop  offset="1" style="stop-color:#550000"/>
			</linearGradient>
			<path style="fill:url(#SVGID_00000068650455197864513940000004763808768162811316_);" d="M122.3,51.3c-0.5,0-0.9-0.1-1.3-0.3
				c-0.4-0.2-0.7-0.5-0.9-0.9c-0.2-0.4-0.3-0.8-0.3-1.3c0-1.2,0.4-2.2,1-2.9c0.6-0.6,1.3-1,2.3-1c0.7,0,1.3,0.2,1.8,0.7
				c0.5,0.5,0.7,1.1,0.7,1.9c0,0.7-0.1,1.3-0.4,1.9c-0.3,0.6-0.7,1.1-1.2,1.4C123.4,51.1,122.8,51.3,122.3,51.3z M123.1,45.1
				c-0.9,0-1.6,0.3-2.1,0.9c-0.7,0.7-1,1.7-1,2.8c0,0.4,0.1,0.8,0.3,1.2c0.2,0.3,0.5,0.6,0.8,0.8c0.4,0.2,0.8,0.3,1.2,0.3
				c0.5,0,1-0.2,1.5-0.4c0.5-0.3,0.9-0.7,1.1-1.3c0.3-0.6,0.4-1.2,0.4-1.8c0-0.7-0.2-1.3-0.6-1.7C124.3,45.3,123.7,45.1,123.1,45.1z
				 M122.3,50.5c-0.4,0-0.8-0.2-1.1-0.5c-0.3-0.3-0.4-0.8-0.4-1.3c0-0.3,0.1-0.7,0.2-1c0.1-0.4,0.3-0.7,0.5-1
				c0.2-0.3,0.5-0.5,0.7-0.7c0.3-0.2,0.6-0.2,0.9-0.2c0.4,0,0.8,0.2,1.1,0.5c0.3,0.3,0.4,0.8,0.4,1.3c0,0.3-0.1,0.7-0.2,1.1
				c-0.1,0.3-0.2,0.5-0.3,0.8c-0.1,0.2-0.3,0.4-0.5,0.6c-0.2,0.2-0.4,0.3-0.6,0.4C122.7,50.5,122.5,50.5,122.3,50.5z M123,45.9
				c-0.3,0-0.6,0.1-0.8,0.2c-0.2,0.1-0.5,0.4-0.7,0.6c-0.2,0.3-0.3,0.6-0.4,1c-0.1,0.4-0.1,0.7-0.1,1c0,0.5,0.1,0.9,0.4,1.2
				c0.2,0.3,0.5,0.4,0.9,0.4c0.2,0,0.4,0,0.6-0.1c0.2-0.1,0.4-0.2,0.5-0.4c0.2-0.2,0.3-0.4,0.4-0.6c0.1-0.2,0.2-0.5,0.3-0.7
				c0.1-0.4,0.2-0.7,0.2-1c0-0.5-0.1-0.9-0.4-1.2C123.7,46,123.4,45.9,123,45.9z"/>
		</g>
		<g>
			
				<linearGradient id="SVGID_00000055671676249642985540000015386425188234059162_" gradientUnits="userSpaceOnUse" x1="131.0475" y1="33.3516" x2="131.0475" y2="55.914">
				<stop  offset="0" style="stop-color:#D32920"/>
				<stop  offset="1" style="stop-color:#550000"/>
			</linearGradient>
			<path style="fill:url(#SVGID_00000055671676249642985540000015386425188234059162_);" d="M128.2,51l1.2-5.9h0.9l-0.2,1
				c0.4-0.4,0.8-0.7,1.1-0.9c0.3-0.2,0.7-0.3,1.1-0.3c0.5,0,0.8,0.1,1.1,0.4c0.3,0.3,0.4,0.6,0.4,1c0,0.2,0,0.6-0.1,1L133,51h-1
				l0.8-3.7c0.1-0.4,0.1-0.6,0.1-0.8c0-0.2-0.1-0.4-0.2-0.5c-0.1-0.1-0.3-0.2-0.6-0.2c-0.5,0-1,0.2-1.4,0.6c-0.4,0.4-0.7,1-0.9,1.9
				l-0.6,2.7H128.2z"/>
			
				<linearGradient id="SVGID_00000096030360725108936250000008919363851699634581_" gradientUnits="userSpaceOnUse" x1="131.0342" y1="33.3516" x2="131.0342" y2="55.914">
				<stop  offset="0" style="stop-color:#D32920"/>
				<stop  offset="1" style="stop-color:#550000"/>
			</linearGradient>
			<path style="fill:url(#SVGID_00000096030360725108936250000008919363851699634581_);" d="M133.1,51.1h-1.2l0.8-3.9
				c0.1-0.4,0.1-0.6,0.1-0.8c0-0.2-0.1-0.3-0.2-0.4c-0.1-0.1-0.3-0.2-0.5-0.2c-0.5,0-0.9,0.2-1.3,0.5c-0.4,0.4-0.7,1-0.8,1.8
				l-0.6,2.8h-1.2l1.3-6.1h1.1l-0.2,0.8c0.3-0.3,0.6-0.5,0.9-0.6c0.4-0.2,0.7-0.3,1.1-0.3c0.5,0,0.9,0.1,1.2,0.4
				c0.3,0.3,0.4,0.7,0.4,1.1c0,0.2,0,0.6-0.1,1.1L133.1,51.1z M132.1,50.9h0.8l0.7-3.5c0.1-0.5,0.1-0.8,0.1-1c0-0.4-0.1-0.7-0.4-1
				c-0.2-0.2-0.6-0.4-1-0.4c-0.3,0-0.7,0.1-1,0.3c-0.3,0.2-0.7,0.5-1.1,0.9l-0.3,0.3l0.3-1.3h-0.7l-1.2,5.6h0.8l0.6-2.6
				c0.2-0.9,0.5-1.6,0.9-2c0.4-0.4,0.9-0.6,1.4-0.6c0.3,0,0.5,0.1,0.7,0.2c0.2,0.1,0.2,0.3,0.2,0.6c0,0.2,0,0.5-0.1,0.8L132.1,50.9z
				"/>
		</g>
		<g>
			
				<linearGradient id="SVGID_00000078744766552053645880000001435462879963551661_" gradientUnits="userSpaceOnUse" x1="139.5064" y1="33.3516" x2="139.5064" y2="55.914">
				<stop  offset="0" style="stop-color:#D32920"/>
				<stop  offset="1" style="stop-color:#550000"/>
			</linearGradient>
			<path style="fill:url(#SVGID_00000078744766552053645880000001435462879963551661_);" d="M136.9,49l1-0.1c0,0.3,0,0.5,0.1,0.7
				c0.1,0.2,0.3,0.4,0.5,0.5c0.2,0.1,0.5,0.2,0.8,0.2c0.4,0,0.8-0.1,1-0.3c0.2-0.2,0.3-0.4,0.3-0.6c0-0.2-0.1-0.3-0.2-0.5
				c-0.1-0.2-0.5-0.3-1-0.6c-0.5-0.2-0.9-0.4-1-0.5c-0.2-0.2-0.4-0.3-0.6-0.5c-0.1-0.2-0.2-0.4-0.2-0.7c0-0.5,0.2-0.9,0.6-1.2
				c0.4-0.3,0.9-0.5,1.5-0.5c0.7,0,1.3,0.2,1.7,0.5c0.4,0.3,0.6,0.8,0.6,1.3l-1,0.1c0-0.4-0.1-0.6-0.4-0.8c-0.2-0.2-0.6-0.3-1-0.3
				c-0.3,0-0.6,0.1-0.8,0.2c-0.2,0.2-0.3,0.3-0.3,0.5s0.1,0.3,0.2,0.5c0.1,0.1,0.4,0.2,0.9,0.4c0.8,0.3,1.2,0.6,1.4,0.8
				c0.3,0.3,0.5,0.7,0.5,1.1c0,0.3-0.1,0.6-0.3,0.9c-0.2,0.3-0.5,0.5-0.8,0.7c-0.4,0.2-0.8,0.3-1.3,0.3c-0.7,0-1.3-0.2-1.7-0.5
				C137.1,50.3,136.9,49.8,136.9,49z"/>
			
				<linearGradient id="SVGID_00000059270924911860829360000011541433048468117638_" gradientUnits="userSpaceOnUse" x1="139.5079" y1="33.3516" x2="139.5079" y2="55.914">
				<stop  offset="0" style="stop-color:#D32920"/>
				<stop  offset="1" style="stop-color:#550000"/>
			</linearGradient>
			<path style="fill:url(#SVGID_00000059270924911860829360000011541433048468117638_);" d="M139.3,51.3c-0.7,0-1.3-0.2-1.8-0.5
				c-0.5-0.4-0.8-0.9-0.7-1.7l0-0.1l1.2-0.1V49c0,0.3,0,0.5,0.1,0.7c0.1,0.2,0.2,0.3,0.4,0.4c0.2,0.1,0.5,0.2,0.8,0.2
				c0.4,0,0.7-0.1,0.9-0.2c0.2-0.2,0.3-0.3,0.3-0.5c0-0.1-0.1-0.3-0.2-0.4c-0.1-0.1-0.3-0.3-1-0.5c-0.5-0.2-0.9-0.4-1-0.5
				c-0.3-0.2-0.5-0.4-0.6-0.6c-0.1-0.2-0.2-0.5-0.2-0.8c0-0.5,0.2-0.9,0.6-1.3c0.4-0.3,0.9-0.5,1.6-0.5c0.8,0,1.4,0.2,1.8,0.5
				c0.4,0.4,0.6,0.8,0.6,1.4l0,0.1l-1.2,0.1l0-0.1c0-0.3-0.1-0.6-0.3-0.8c-0.2-0.2-0.5-0.3-0.9-0.3c-0.3,0-0.6,0.1-0.7,0.2
				c-0.2,0.1-0.2,0.3-0.2,0.4c0,0.2,0.1,0.3,0.2,0.4c0.1,0.1,0.3,0.2,0.8,0.4c0.8,0.3,1.3,0.6,1.5,0.8c0.3,0.3,0.5,0.7,0.5,1.2
				c0,0.3-0.1,0.6-0.3,0.9c-0.2,0.3-0.5,0.5-0.9,0.7C140.3,51.2,139.8,51.3,139.3,51.3z M137,49.1c0,0.7,0.2,1.1,0.6,1.4
				c0.5,0.3,1,0.5,1.7,0.5c0.5,0,0.9-0.1,1.2-0.2c0.3-0.2,0.6-0.4,0.8-0.6c0.2-0.3,0.3-0.5,0.3-0.8c0-0.4-0.1-0.7-0.4-1
				c-0.2-0.2-0.7-0.4-1.4-0.8c-0.5-0.2-0.8-0.4-0.9-0.5c-0.2-0.2-0.3-0.4-0.3-0.6c0-0.2,0.1-0.4,0.3-0.6c0.2-0.2,0.5-0.3,0.9-0.3
				c0.5,0,0.8,0.1,1.1,0.3c0.2,0.2,0.4,0.5,0.4,0.8l0.8-0.1c0-0.5-0.2-0.9-0.6-1.2c-0.4-0.3-0.9-0.5-1.6-0.5c-0.6,0-1.1,0.2-1.5,0.5
				c-0.3,0.3-0.5,0.7-0.5,1.1c0,0.2,0.1,0.5,0.2,0.6c0.1,0.2,0.3,0.4,0.5,0.5c0.1,0.1,0.5,0.2,1,0.5c0.6,0.2,0.9,0.4,1,0.6
				c0.2,0.2,0.2,0.4,0.2,0.6c0,0.3-0.1,0.5-0.4,0.7c-0.2,0.2-0.6,0.3-1.1,0.3c-0.3,0-0.6-0.1-0.9-0.2c-0.3-0.1-0.4-0.3-0.5-0.6
				c-0.1-0.2-0.1-0.4-0.1-0.7L137,49.1z"/>
		</g>
		<g>
			
				<linearGradient id="SVGID_00000086688949532100359060000003383407417686648763_" gradientUnits="userSpaceOnUse" x1="147.315" y1="33.3516" x2="147.315" y2="55.914">
				<stop  offset="0" style="stop-color:#D32920"/>
				<stop  offset="1" style="stop-color:#550000"/>
			</linearGradient>
			<path style="fill:url(#SVGID_00000086688949532100359060000003383407417686648763_);" d="M145.9,44.1l0.2-1.1h1.1l-0.2,1
				c-0.1,0.6-0.3,1-0.6,1.3s-0.6,0.4-0.9,0.5l0.1-0.4c0.4-0.1,0.7-0.5,0.9-1.2H145.9z M147.7,44.1l0.2-1.1h1.1l-0.2,1
				c-0.1,0.6-0.3,1-0.6,1.3s-0.6,0.4-0.9,0.5l0.1-0.4c0.4-0.1,0.7-0.5,0.9-1.2H147.7z"/>
			
				<linearGradient id="SVGID_00000158030869354863057060000003715208904690749619_" gradientUnits="userSpaceOnUse" x1="147.3127" y1="33.3516" x2="147.3127" y2="55.914">
				<stop  offset="0" style="stop-color:#D32920"/>
				<stop  offset="1" style="stop-color:#550000"/>
			</linearGradient>
			<path style="fill:url(#SVGID_00000158030869354863057060000003715208904690749619_);" d="M145.4,45.9l0.1-0.7l0.1,0
				c0.4-0.1,0.6-0.4,0.8-1h-0.6l0.3-1.4h1.4l-0.2,1.1c-0.1,0.6-0.3,1.1-0.6,1.4c-0.3,0.3-0.6,0.5-1,0.5L145.4,45.9z M145.7,45.4
				l0,0.2c0.3-0.1,0.5-0.2,0.7-0.4c0.2-0.3,0.4-0.7,0.6-1.2l0.2-0.9h-0.9L146,44h0.6l0,0.1C146.5,44.8,146.2,45.2,145.7,45.4z
				 M147.2,45.9l0.1-0.7l0.1,0c0.4-0.1,0.6-0.4,0.8-1h-0.6l0.3-1.4h1.4L149,44c-0.1,0.6-0.3,1.1-0.6,1.4c-0.3,0.3-0.6,0.5-1,0.5
				L147.2,45.9z M147.6,45.4l0,0.2c0.3-0.1,0.5-0.2,0.7-0.4c0.2-0.3,0.4-0.7,0.5-1.2l0.2-0.9H148l-0.2,0.9h0.6l0,0.1
				C148.3,44.8,148,45.2,147.6,45.4z"/>
		</g>
	</g>
</g>
</svg>
